<svg xmlns="http://www.w3.org/2000/svg" width="258" height="58" viewBox="0 0 258 58" version="1.1"><title>azuqua-logo</title><desc>Created with Sketch.</desc><g stroke="none" stroke-width="1" fill="none" fill-rule="evenodd"><ellipse fill="#414142" cx="66.9" cy="13.7" rx="3" ry="3.1"/><ellipse fill="#414142" cx="20.1" cy="50.3" rx="3.4" ry="3.4"/><g transform="translate(0.000000, 6.566038)"><path d="M34.3 22.8L41.2 12.4" stroke="#2EA8DD" stroke-width="2"/><path d="M23.5 38.8L29.5 29.9" stroke="#2EA8DD" stroke-width="2"/><path d="M15.2 40.1L6.9 33.6" stroke="#2EA8DD" stroke-width="2"/><path d="M47.8 8.4L61.4 7.6" stroke="#2EA8DD" stroke-width="2"/><path d="M32 23.2C33.7 23.2 35 24.6 35 26.3 35 27.9 33.6 29.3 32 29.3 30.3 29.3 28.9 27.9 28.9 26.3 28.9 24.6 30.3 23.2 32 23.2L32 23.2ZM32 21C29.1 21 26.8 23.4 26.8 26.3 26.8 29.2 29.2 31.5 32 31.5 34.9 31.5 37.2 29.1 37.2 26.3 37.2 23.4 34.8 21 32 21L32 21 32 21Z" fill="#2EA8DD"/><path d="M43.7 5.8C45.4 5.8 46.7 7.1 46.7 8.8 46.7 10.4 45.4 11.7 43.7 11.7 42.1 11.7 40.8 10.4 40.8 8.8 40.8 7.1 42.1 5.8 43.7 5.8L43.7 5.8ZM43.7 3.6C40.9 3.6 38.6 5.9 38.6 8.8 38.6 11.6 40.9 13.9 43.7 13.9 46.6 13.9 48.9 11.6 48.9 8.8 48.9 5.9 46.6 3.6 43.7 3.6L43.7 3.6 43.7 3.6Z" fill="#2EA8DD"/><path d="M66.9 2.6C69.4 2.6 71.4 4.6 71.4 7.1 71.4 9.6 69.4 11.6 66.9 11.6 64.4 11.6 62.5 9.6 62.5 7.1 62.5 4.6 64.4 2.6 66.9 2.6L66.9 2.6ZM66.9 0.4C63.2 0.4 60.3 3.4 60.3 7.1 60.3 10.8 63.2 13.8 66.9 13.8 70.6 13.8 73.6 10.8 73.6 7.1 73.6 3.4 70.5 0.4 66.9 0.4L66.9 0.4 66.9 0.4Z" fill="#2EA8DD"/><path d="M55.5 23C56.5 23 57.2 23.7 57.2 24.7 57.2 25.7 56.5 26.5 55.5 26.5 54.5 26.5 53.8 25.7 53.8 24.7 53.8 23.7 54.5 23 55.5 23L55.5 23ZM55.5 20.8C53.3 20.8 51.6 22.5 51.6 24.7 51.6 26.9 53.3 28.7 55.5 28.7 57.7 28.7 59.4 26.9 59.4 24.7 59.4 22.5 57.7 20.8 55.5 20.8L55.5 20.8 55.5 20.8Z" fill="#2EA8DD"/><path d="M20.1 38.8C22.9 38.8 25 41 25 43.8 25 46.5 22.9 48.7 20.1 48.7 17.4 48.7 15.2 46.5 15.2 43.8 15.2 41 17.5 38.8 20.1 38.8L20.1 38.8ZM20.1 36.7C16.2 36.7 13.1 39.8 13.1 43.8 13.1 47.7 16.2 50.9 20.1 50.9 24.1 50.9 27.2 47.7 27.2 43.8 27.2 39.8 24.1 36.7 20.1 36.7L20.1 36.7 20.1 36.7Z" fill="#2EA8DD"/><path d="M4.6 30.3C5.4 30.3 6.2 31.1 6.2 32 6.2 32.8 5.4 33.6 4.6 33.6 3.7 33.6 2.9 32.8 2.9 32 2.9 31 3.7 30.3 4.6 30.3L4.6 30.3ZM4.6 28.1C2.5 28.1 0.8 29.8 0.8 32 0.8 34 2.4 35.8 4.6 35.8 6.6 35.8 8.4 34.1 8.4 32 8.4 29.8 6.6 28.1 4.6 28.1L4.6 28.1 4.6 28.1Z" fill="#2EA8DD"/><path d="M46.3 12.1L53.7 22.3" stroke="#2EA8DD" stroke-width="2"/></g><g transform="translate(2.176471, 0.000000)" fill="#414142"><path d="M48.1 1.1C49.1 1.1 49.8 1.9 49.8 2.8 49.8 3.8 49.1 4.6 48.1 4.6 47.1 4.6 46.4 3.8 46.4 2.8 46.4 1.9 47.1 1.1 48.1 1.1L48.1 1.1ZM48.1 0.2C46.7 0.2 45.6 1.3 45.6 2.7 45.6 4.2 46.7 5.3 48.1 5.3 49.5 5.3 50.6 4.2 50.6 2.7 50.6 1.4 49.4 0.2 48.1 0.2L48.1 0.2 48.1 0.2Z"/><path d="M43 26.3C43.6 26.3 44.1 26.8 44.1 27.4 44.1 28 43.5 28.5 43 28.5 42.3 28.5 41.9 27.9 41.9 27.4 41.9 26.7 42.4 26.3 43 26.3L43 26.3ZM43 25.4C41.9 25.4 41 26.3 41 27.4 41 28.5 41.9 29.3 43 29.3 44.1 29.3 44.9 28.5 44.9 27.4 44.9 26.3 44.1 25.4 43 25.4L43 25.4 43 25.4Z"/><path d="M2.6 48.6C3.3 48.6 3.7 49.1 3.7 49.7 3.7 50.3 3.2 50.8 2.6 50.8 2 50.8 1.5 50.2 1.5 49.7 1.5 49 2.1 48.6 2.6 48.6L2.6 48.6ZM2.6 47.7C1.5 47.7 0.7 48.6 0.7 49.7 0.7 50.8 1.5 51.7 2.6 51.7 3.7 51.7 4.6 50.8 4.6 49.7 4.6 48.6 3.7 47.7 2.6 47.7L2.6 47.7 2.6 47.7Z"/><path d="M12.5 29.5C13.8 29.5 15 30.6 15 32.1 15 33.4 13.9 34.6 12.5 34.6 11.1 34.6 10 33.5 10 32.1 10 30.6 11.1 29.5 12.5 29.5L12.5 29.5ZM12.5 28.7C10.7 28.7 9.3 30.2 9.3 32 9.3 33.8 10.8 35.2 12.5 35.2 14.4 35.2 15.8 33.7 15.8 32 15.8 30.2 14.3 28.7 12.5 28.7L12.5 28.7 12.5 28.7Z"/></g><g transform="translate(79.000000, 14.000000)"><path d="M56.4 27.6L29.9 27.6 29.9 24.5 50.9 3.9 30 3.9 30 0.4 56.4 0.4 56.4 3.5 35.5 24.1 56.4 24.1 56.4 27.6Z" fill="#31AADE"/><path d="M60.6 0.4L60.6 14.2C60.6 20.8 66.1 26.2 72.9 26.2 79.6 26.2 85.1 20.8 85.1 14.2L85.1 0.4" stroke="#31AADE" stroke-width="4"/><path d="M122.1 0.4L122.1 14.2C122.1 20.8 127.6 26.2 134.4 26.2 141.1 26.2 146.6 20.8 146.6 14.2L146.6 0.4" stroke="#31AADE" stroke-width="4"/><ellipse stroke="#31AADE" stroke-width="4" cx="13.2" cy="14" rx="12.6" ry="12.4"/><path d="M25.8 14L25.8 27.5" stroke="#31AADE" stroke-width="4"/><ellipse stroke="#31AADE" stroke-width="4" cx="103.5" cy="14" rx="12.6" ry="12.4"/><ellipse stroke="#31AADE" stroke-width="4" cx="165.1" cy="14" rx="12.6" ry="12.4"/><path d="M177.7 14L177.7 27.5" stroke="#31AADE" stroke-width="4"/><path d="M107.5 18.4L114.2 27.6" stroke="#31AADE" stroke-width="4" fill="#FFFFFF"/></g></g></svg>