<?xml version="1.0" encoding="utf-8"?>
<!-- Generator: Adobe Illustrator 16.0.4, SVG Export Plug-In . SVG Version: 6.00 Build 0)  -->
<!DOCTYPE svg PUBLIC "-//W3C//DTD SVG 1.1//EN" "http://www.w3.org/Graphics/SVG/1.1/DTD/svg11.dtd">
<svg version="1.1" id="Layer_1" xmlns="http://www.w3.org/2000/svg" xmlns:xlink="http://www.w3.org/1999/xlink" x="0px" y="0px"
	 width="576px" height="276px" viewBox="0 0 576 576" enable-background="new 0 0 576 576" xml:space="preserve">
<g>
	<polygon points="285.798,220.654 287.592,218.921 289.332,220.703 287.543,222.438 	"/>
	<polygon points="289.155,220.7 287.545,222.263 285.976,220.656 287.589,219.098 	"/>
	<polygon points="285.798,355.155 287.592,353.423 289.332,355.202 287.543,356.94 	"/>
	<polygon points="289.155,355.2 287.545,356.763 285.976,355.157 287.589,353.599 	"/>
</g>
<g>
	<polygon points="278.775,221.207 280.378,219.296 282.294,220.887 280.698,222.799 	"/>
	<polygon points="282.119,220.902 280.68,222.624 278.952,221.19 280.394,219.472 	"/>
	<polygon points="292.834,354.972 294.438,353.062 296.354,354.648 294.756,356.564 	"/>
	<polygon points="296.178,354.666 294.74,356.388 293.012,354.955 294.453,353.236 	"/>
</g>
<g>
	<polygon points="271.848,222.491 273.244,220.423 275.315,221.805 273.927,223.874 	"/>
	<polygon points="275.142,221.839 273.892,223.701 272.023,222.456 273.278,220.597 	"/>
	<polygon points="299.812,354.053 301.207,351.986 303.279,353.364 301.891,355.437 	"/>
	<polygon points="303.107,353.4 301.855,355.262 299.986,354.018 301.24,352.158 	"/>
</g>
<g>
	<polygon points="265.094,224.493 266.265,222.29 268.47,223.448 267.306,225.65 	"/>
	<polygon points="268.301,223.5 267.253,225.482 265.264,224.439 266.318,222.459 	"/>
	<polygon points="306.658,352.41 307.828,350.209 310.033,351.363 308.869,353.569 	"/>
	<polygon points="309.865,351.417 308.816,353.399 306.826,352.357 307.879,350.377 	"/>
</g>
<g>
	<polygon points="258.585,227.189 259.52,224.876 261.834,225.797 260.907,228.108 	"/>
	<polygon points="261.671,225.866 260.836,227.947 258.75,227.118 259.59,225.039 	"/>
	<polygon points="313.293,350.062 314.227,347.75 316.541,348.666 315.613,350.982 	"/>
	<polygon points="316.379,348.738 315.543,350.819 313.455,349.991 314.295,347.911 	"/>
</g>
<g>
	<polygon points="252.395,230.551 253.083,228.153 255.481,228.827 254.799,231.223 	"/>
	<polygon points="255.326,228.913 254.712,231.069 252.55,230.463 253.169,228.307 	"/>
	<polygon points="319.646,347.032 320.334,344.636 322.73,345.305 322.051,347.705 	"/>
	<polygon points="322.576,345.393 321.963,347.551 319.801,346.945 320.418,344.789 	"/>
</g>
<g>
	<polygon points="246.589,234.541 247.023,232.084 249.478,232.505 249.051,234.958 	"/>
	<polygon points="249.333,232.606 248.949,234.815 246.735,234.438 247.125,232.229 	"/>
	<polygon points="325.648,343.355 326.082,340.899 328.535,341.314 328.109,343.773 	"/>
	<polygon points="328.391,341.418 328.006,343.629 325.793,343.252 326.182,341.043 	"/>
</g>
<g>
	<polygon points="241.233,239.117 241.408,236.628 243.893,236.79 243.725,239.274 	"/>
	<polygon points="243.759,236.905 243.608,239.143 241.367,238.999 241.525,236.761 	"/>
	<polygon points="331.232,339.07 331.406,336.583 333.891,336.74 333.725,339.229 	"/>
	<polygon points="333.758,336.857 333.605,339.097 331.365,338.953 331.521,336.715 	"/>
</g>
<g>
	<polygon points="236.384,244.227 236.297,241.733 238.787,241.634 238.879,244.123 	"/>
	<polygon points="238.666,241.764 238.749,244.004 236.505,244.096 236.428,241.854 	"/>
	<polygon points="336.34,334.225 336.252,331.734 338.738,331.631 338.834,334.124 	"/>
	<polygon points="338.619,331.761 338.701,334.004 336.459,334.096 336.381,331.853 	"/>
</g>
<g>
	<polygon points="232.096,249.816 231.749,247.345 234.214,246.986 234.567,249.452 	"/>
	<polygon points="234.108,247.128 234.424,249.348 232.203,249.673 231.892,247.452 	"/>
	<polygon points="340.91,328.873 340.562,326.405 343.025,326.042 343.381,328.512 	"/>
	<polygon points="342.922,326.184 343.238,328.406 341.018,328.732 340.705,326.51 	"/>
</g>
<g>
	<polygon points="228.417,255.823 227.812,253.402 230.227,252.787 230.835,255.203 	"/>
	<polygon points="230.135,252.939 230.682,255.114 228.506,255.669 227.966,253.493 	"/>
	<polygon points="344.898,323.072 344.295,320.654 346.705,320.036 347.316,322.455 	"/>
	<polygon points="346.617,320.188 347.164,322.365 344.99,322.922 344.445,320.744 	"/>
</g>
<g>
	<polygon points="230.184,323.102 227.785,322.415 228.46,320.015 230.856,320.695 	"/>
	<polygon points="228.545,320.171 230.702,320.784 230.095,322.947 227.941,322.325 	"/>
	<polygon points="346.664,255.849 344.27,255.164 344.939,252.765 347.338,253.445 	"/>
	<polygon points="345.025,252.919 347.186,253.534 346.578,255.695 344.422,255.077 	"/>
</g>
<g>
	<polygon points="234.174,328.906 231.716,328.475 232.137,326.018 234.591,326.443 	"/>
	<polygon points="232.239,326.164 234.447,326.548 234.07,328.763 231.863,328.369 	"/>
	<polygon points="342.986,249.847 340.535,249.416 340.949,246.96 343.406,247.386 	"/>
	<polygon points="341.051,247.104 343.264,247.491 342.885,249.703 340.676,249.313 	"/>
</g>
<g>
	<polygon points="238.75,334.263 236.26,334.09 236.421,331.603 238.908,331.77 	"/>
	<polygon points="236.539,331.738 238.774,331.889 238.63,334.131 236.395,333.971 	"/>
	<polygon points="338.701,244.262 336.219,244.09 336.373,241.604 338.861,241.771 	"/>
	<polygon points="336.49,241.737 338.73,241.89 338.586,244.13 336.348,243.974 	"/>
</g>
<g>
	<polygon points="243.86,339.111 241.367,339.199 241.266,336.709 243.756,336.615 	"/>
	<polygon points="241.397,336.832 243.636,336.748 243.727,338.992 241.488,339.066 	"/>
	<polygon points="333.857,239.156 331.369,239.245 331.264,236.756 333.756,236.662 	"/>
	<polygon points="331.393,236.876 333.639,236.794 333.727,239.037 331.486,239.115 	"/>
</g>
<g>
	<polygon points="249.449,343.398 246.979,343.748 246.619,341.281 249.085,340.928 	"/>
	<polygon points="246.761,341.391 248.98,341.072 249.304,343.295 247.085,343.602 	"/>
	<polygon points="328.506,234.584 326.039,234.933 325.676,232.468 328.143,232.115 	"/>
	<polygon points="325.816,232.575 328.041,232.258 328.363,234.479 326.143,234.792 	"/>
</g>
<g>
	<polygon points="255.456,347.078 253.036,347.685 252.419,345.27 254.835,344.66 	"/>
	<polygon points="252.573,345.362 254.746,344.814 255.301,346.991 253.126,347.527 	"/>
	<polygon points="322.705,230.597 320.289,231.202 319.67,228.789 322.086,228.179 	"/>
	<polygon points="319.82,228.88 322,228.332 322.553,230.507 320.377,231.05 	"/>
</g>
<g>
	<polygon points="261.814,350.111 259.471,350.967 258.606,348.629 260.944,347.771 	"/>
	<polygon points="258.768,348.705 260.871,347.934 261.651,350.04 259.544,350.801 	"/>
	<polygon points="316.52,227.238 314.18,228.092 313.311,225.757 315.652,224.897 	"/>
	<polygon points="313.471,225.832 315.582,225.059 316.357,227.164 314.25,227.932 	"/>
</g>
<g>
	<polygon points="268.455,352.463 266.213,353.559 265.109,351.324 267.344,350.226 	"/>
	<polygon points="265.278,351.382 267.289,350.396 268.285,352.408 266.27,353.386 	"/>
	<polygon points="310.016,224.544 307.779,225.638 306.67,223.406 308.908,222.307 	"/>
	<polygon points="306.838,223.463 308.855,222.475 309.848,224.487 307.832,225.472 	"/>
</g>
<g>
	<polygon points="275.305,354.106 273.19,355.431 271.858,353.324 273.966,351.998 	"/>
	<polygon points="272.032,353.363 273.929,352.173 275.13,354.07 273.228,355.253 	"/>
	<polygon points="303.268,222.545 301.158,223.866 299.82,221.763 301.932,220.435 	"/>
	<polygon points="299.994,221.802 301.896,220.608 303.094,222.505 301.193,223.695 	"/>
</g>
<g>
	<polygon points="282.29,355.025 280.325,356.563 278.779,354.607 280.738,353.068 	"/>
	<polygon points="278.957,354.628 280.719,353.246 282.112,355.008 280.343,356.383 	"/>
	<polygon points="296.346,221.262 294.387,222.796 292.838,220.844 294.799,219.303 	"/>
	<polygon points="293.014,220.865 294.781,219.479 296.17,221.24 294.404,222.623 	"/>
</g>
<g>
	<polygon points="285.798,164.154 287.592,162.421 289.332,164.203 287.543,165.938 	"/>
	<polygon points="289.155,164.2 287.545,165.763 285.976,164.156 287.589,162.598 	"/>
	<polygon points="285.798,411.655 287.592,409.923 289.332,411.702 287.543,413.44 	"/>
	<polygon points="289.155,411.7 287.545,413.263 285.976,411.657 287.589,410.099 	"/>
</g>
<g>
	<polygon points="277.168,164.58 278.837,162.725 280.698,164.382 279.034,166.238 	"/>
	<polygon points="280.521,164.391 279.024,166.062 277.346,164.569 278.846,162.902 	"/>
	<polygon points="294.434,411.479 296.102,409.625 297.963,411.277 296.299,413.137 	"/>
	<polygon points="297.785,411.287 296.289,412.959 294.611,411.467 296.111,409.799 	"/>
</g>
<g>
	<polygon points="268.589,165.606 270.125,163.639 272.096,165.162 270.566,167.129 	"/>
	<polygon points="271.92,165.184 270.544,166.955 268.766,165.583 270.146,163.815 	"/>
	<polygon points="303.035,410.699 304.57,408.734 306.541,410.252 305.012,412.223 	"/>
	<polygon points="306.365,410.273 304.988,412.046 303.211,410.675 304.592,408.906 	"/>
</g>
<g>
	<polygon points="260.103,167.228 261.499,165.159 263.571,166.541 262.181,168.61 	"/>
	<polygon points="263.397,166.575 262.148,168.437 260.278,167.192 261.531,165.333 	"/>
	<polygon points="311.562,409.321 312.957,407.254 315.027,408.631 313.639,410.703 	"/>
	<polygon points="314.855,408.664 313.605,410.529 311.736,409.285 312.99,407.424 	"/>
</g>
<g>
	<polygon points="251.75,169.438 252.999,167.276 255.163,168.51 253.92,170.672 	"/>
	<polygon points="254.991,168.557 253.875,170.501 251.922,169.391 253.042,167.448 	"/>
	<polygon points="319.971,407.352 321.219,405.193 323.381,406.422 322.141,408.586 	"/>
	<polygon points="323.211,406.467 322.094,408.414 320.143,407.303 321.264,405.359 	"/>
</g>
<g>
	<polygon points="243.573,172.225 244.667,169.982 246.912,171.062 245.824,173.305 	"/>
	<polygon points="246.744,171.12 245.766,173.137 243.741,172.166 244.722,170.149 	"/>
	<polygon points="328.223,404.801 329.316,402.561 331.561,403.635 330.473,405.881 	"/>
	<polygon points="331.395,403.691 330.416,405.713 328.391,404.739 329.373,402.723 	"/>
</g>
<g>
	<polygon points="235.609,175.576 236.543,173.262 238.859,174.182 237.93,176.496 	"/>
	<polygon points="238.696,174.252 237.861,176.333 235.773,175.505 236.611,173.425 	"/>
	<polygon points="336.277,401.681 337.213,399.369 339.523,400.285 338.598,402.601 	"/>
	<polygon points="339.363,400.352 338.527,402.438 336.439,401.607 337.279,399.527 	"/>
</g>
<g>
	<polygon points="227.898,179.475 228.669,177.101 231.043,177.857 230.279,180.229 	"/>
	<polygon points="230.885,177.938 230.198,180.072 228.057,179.392 228.748,177.259 	"/>
	<polygon points="344.094,398.006 344.865,395.635 347.236,396.387 346.473,398.762 	"/>
	<polygon points="347.08,396.465 346.393,398.604 344.25,397.922 344.943,395.788 	"/>
</g>
<g>
	<polygon points="220.478,183.901 221.083,181.479 223.503,182.068 222.906,184.488 	"/>
	<polygon points="223.351,182.161 222.814,184.337 220.631,183.808 221.171,181.632 	"/>
	<polygon points="351.635,393.795 352.24,391.375 354.656,391.961 354.061,394.383 	"/>
	<polygon points="354.506,392.049 353.969,394.231 351.785,393.7 352.328,391.523 	"/>
</g>
<g>
	<polygon points="213.385,188.834 213.82,186.376 216.276,186.794 215.848,189.251 	"/>
	<polygon points="216.129,186.898 215.746,189.106 213.532,188.731 213.918,186.522 	"/>
	<polygon points="358.863,389.068 359.299,386.611 361.75,387.027 361.324,389.486 	"/>
	<polygon points="361.607,387.125 361.223,389.341 359.008,388.963 359.398,386.754 	"/>
</g>
<g>
	<polygon points="206.654,194.25 206.916,191.768 209.395,192.014 209.14,194.495 	"/>
	<polygon points="209.256,192.127 209.027,194.357 206.792,194.137 207.024,191.907 	"/>
	<polygon points="365.744,383.85 366.008,381.367 368.482,381.611 368.229,384.094 	"/>
	<polygon points="368.346,381.719 368.117,383.955 365.883,383.733 366.117,381.503 	"/>
</g>
<g>
	<polygon points="200.317,200.123 200.405,197.628 202.895,197.701 202.814,200.193 	"/>
	<polygon points="202.765,197.824 202.692,200.063 200.447,200 200.522,197.759 	"/>
	<polygon points="372.246,378.162 372.334,375.668 374.82,375.738 374.74,378.232 	"/>
	<polygon points="374.691,375.855 374.621,378.104 372.375,378.037 372.453,375.796 	"/>
</g>
<g>
	<polygon points="194.405,206.423 194.319,203.929 196.807,203.827 196.901,206.319 	"/>
	<polygon points="196.687,203.959 196.77,206.198 194.526,206.292 194.444,204.051 	"/>
	<polygon points="378.334,372.035 378.248,369.541 380.734,369.438 380.828,371.932 	"/>
	<polygon points="380.613,369.564 380.699,371.811 378.453,371.901 378.377,369.66 	"/>
</g>
<g>
	<polygon points="188.947,213.121 188.687,210.638 191.162,210.363 191.429,212.842 	"/>
	<polygon points="191.051,210.503 191.291,212.731 189.058,212.981 188.82,210.751 	"/>
	<polygon points="383.98,365.498 383.721,363.018 386.193,362.74 386.461,365.223 	"/>
	<polygon points="386.082,362.875 386.324,365.109 384.09,365.357 383.857,363.127 	"/>
</g>
<g>
	<polygon points="183.969,220.183 183.537,217.724 185.986,217.277 186.426,219.731 	"/>
	<polygon points="185.885,217.424 186.28,219.63 184.07,220.036 183.677,217.828 	"/>
	<polygon points="389.156,358.584 388.725,356.127 391.172,355.679 391.611,358.136 	"/>
	<polygon points="391.07,355.82 391.469,358.033 389.256,358.436 388.869,356.228 	"/>
</g>
<g>
	<polygon points="179.497,227.574 178.893,225.152 181.305,224.536 181.917,226.953 	"/>
	<polygon points="181.215,224.689 181.762,226.862 179.586,227.421 179.041,225.246 	"/>
	<polygon points="393.838,351.326 393.236,348.904 395.645,348.287 396.256,350.707 	"/>
	<polygon points="395.555,348.436 396.105,350.615 393.928,351.17 393.387,348.995 	"/>
</g>
<g>
	<polygon points="175.55,235.26 174.779,232.886 177.142,232.103 177.92,234.472 	"/>
	<polygon points="177.064,232.262 177.76,234.391 175.629,235.101 174.932,232.969 	"/>
	<polygon points="398.002,343.759 397.232,341.385 399.592,340.602 400.371,342.973 	"/>
	<polygon points="399.514,340.756 400.215,342.892 398.08,343.596 397.389,341.465 	"/>
</g>
<g>
	<polygon points="172.15,243.202 171.214,240.888 173.517,239.942 174.458,242.25 	"/>
	<polygon points="173.451,240.106 174.293,242.181 172.217,243.038 171.374,240.959 	"/>
	<polygon points="401.629,335.92 400.693,333.605 402.994,332.659 403.938,334.971 	"/>
	<polygon points="402.926,332.818 403.773,334.9 401.693,335.751 400.855,333.674 	"/>
</g>
<g>
	<polygon points="169.311,251.362 168.216,249.119 170.448,248.015 171.548,250.252 	"/>
	<polygon points="170.393,248.184 171.378,250.194 169.367,251.193 168.38,249.179 	"/>
	<polygon points="404.699,327.846 403.605,325.604 405.832,324.499 406.936,326.738 	"/>
	<polygon points="405.775,324.662 406.768,326.68 404.752,327.674 403.771,325.66 	"/>
</g>
<g>
	<polygon points="167.048,259.701 165.8,257.539 167.949,256.282 169.204,258.437 	"/>
	<polygon points="167.906,256.455 169.03,258.392 167.092,259.528 165.968,257.588 	"/>
	<polygon points="407.199,319.578 405.951,317.418 408.096,316.16 409.352,318.316 	"/>
	<polygon points="408.051,316.328 409.182,318.27 407.24,319.402 406.121,317.463 	"/>
</g>
<g>
	<polygon points="165.374,268.176 163.977,266.107 166.033,264.703 167.435,266.765 	"/>
	<polygon points="166.002,264.878 167.258,266.732 165.405,268.001 164.149,266.145 	"/>
	<polygon points="409.115,311.156 407.719,309.089 409.771,307.684 411.176,309.747 	"/>
	<polygon points="409.738,307.854 411.002,309.712 409.145,310.979 407.893,309.121 	"/>
</g>
<g>
	<polygon points="164.293,276.749 162.756,274.782 164.708,273.238 166.251,275.197 	"/>
	<polygon points="164.691,273.415 166.073,275.176 164.312,276.572 162.93,274.807 	"/>
	<polygon points="410.439,302.621 408.902,300.656 410.852,299.111 412.396,301.071 	"/>
	<polygon points="410.83,299.283 412.221,301.049 410.455,302.441 409.078,300.676 	"/>
</g>
<g>
	<polygon points="163.814,285.375 162.144,283.521 163.983,281.844 165.659,283.69 	"/>
	<polygon points="163.978,282.021 165.479,283.683 163.821,285.197 162.319,283.534 	"/>
	<polygon points="411.166,294.014 409.496,292.162 411.332,290.484 413.01,292.332 	"/>
	<polygon points="411.322,290.657 412.832,292.322 411.168,293.834 409.672,292.169 	"/>
</g>
<g>
	<polygon points="163.937,294.014 162.143,292.28 163.86,290.48 165.661,292.205 	"/>
	<polygon points="163.867,290.657 165.481,292.209 163.932,293.836 162.318,292.281 	"/>
	<polygon points="411.289,285.377 409.494,283.646 411.209,281.845 413.012,283.571 	"/>
	<polygon points="411.213,282.018 412.834,283.573 411.279,285.198 409.672,283.641 	"/>
</g>
<g>
	<polygon points="164.663,302.623 162.752,301.02 164.339,299.104 166.256,300.699 	"/>
	<polygon points="164.359,299.279 166.078,300.715 164.646,302.446 162.927,301.008 	"/>
	<polygon points="410.811,276.753 408.898,275.152 410.484,273.235 412.402,274.831 	"/>
	<polygon points="410.5,273.408 412.227,274.846 410.789,276.575 409.076,275.134 	"/>
</g>
<g>
	<polygon points="165.987,311.16 163.97,309.694 165.419,307.672 167.443,309.131 	"/>
	<polygon points="165.452,307.847 167.266,309.158 165.958,310.986 164.144,309.67 	"/>
	<polygon points="409.732,268.184 407.713,266.719 409.16,264.697 411.184,266.155 	"/>
	<polygon points="409.188,264.868 411.01,266.182 409.697,268.007 407.887,266.689 	"/>
</g>
<g>
	<polygon points="167.904,319.584 165.791,318.264 167.094,316.145 169.214,317.459 	"/>
	<polygon points="167.139,316.316 169.041,317.498 167.864,319.413 165.961,318.227 	"/>
	<polygon points="408.057,259.71 405.941,258.39 407.242,256.272 409.365,257.585 	"/>
	<polygon points="407.283,256.44 409.193,257.625 408.01,259.536 406.113,258.348 	"/>
</g>
<g>
	<polygon points="170.404,327.854 168.204,326.684 169.356,324.48 171.563,325.643 	"/>
	<polygon points="169.414,324.648 171.392,325.693 170.352,327.688 168.372,326.637 	"/>
	<polygon points="405.795,251.374 403.592,250.205 404.744,248.001 406.951,249.164 	"/>
	<polygon points="404.797,248.166 406.783,249.214 405.736,251.204 403.762,250.151 	"/>
</g>
<g>
	<polygon points="173.474,335.93 171.198,334.915 172.194,332.638 174.477,333.643 	"/>
	<polygon points="172.263,332.801 174.31,333.705 173.412,335.768 171.363,334.857 	"/>
	<polygon points="402.957,243.216 400.678,242.204 401.674,239.925 403.957,240.931 	"/>
	<polygon points="401.738,240.085 403.791,240.992 402.887,243.05 400.844,242.138 	"/>
</g>
<g>
	<polygon points="177.101,343.771 174.759,342.918 175.594,340.577 177.942,341.42 	"/>
	<polygon points="175.674,340.734 177.78,341.494 177.027,343.614 174.92,342.85 	"/>
	<polygon points="399.559,235.276 397.213,234.425 398.047,232.083 400.395,232.926 	"/>
	<polygon points="398.123,232.238 400.234,232.999 399.477,235.115 397.373,234.348 	"/>
</g>
<g>
	<polygon points="181.266,351.342 178.871,350.653 179.541,348.26 181.941,348.938 	"/>
	<polygon points="179.63,348.41 181.785,349.022 181.18,351.189 179.026,350.574 	"/>
	<polygon points="395.613,227.592 393.215,226.907 393.883,224.512 396.283,225.19 	"/>
	<polygon points="393.969,224.662 396.129,225.273 395.52,227.438 393.369,226.819 	"/>
</g>
<g>
	<polygon points="185.949,358.603 183.511,358.084 184.012,355.648 186.455,356.157 	"/>
	<polygon points="184.113,355.792 186.304,356.253 185.853,358.457 183.661,357.993 	"/>
	<polygon points="391.141,220.203 388.701,219.686 389.201,217.25 391.643,217.759 	"/>
	<polygon points="389.297,217.394 391.494,217.854 391.037,220.055 388.848,219.587 	"/>
</g>
<g>
	<polygon points="191.126,365.52 188.659,365.172 188.989,362.707 191.46,363.045 	"/>
	<polygon points="189.099,362.844 191.317,363.15 191.021,365.381 188.801,365.07 	"/>
	<polygon points="386.164,213.143 383.693,212.798 384.023,210.333 386.496,210.67 	"/>
	<polygon points="384.129,210.469 386.354,210.775 386.051,213.003 383.834,212.689 	"/>
</g>
<g>
	<polygon points="196.774,372.059 194.288,371.883 194.446,369.402 196.934,369.566 	"/>
	<polygon points="194.565,369.529 196.799,369.682 196.66,371.928 194.423,371.772 	"/>
	<polygon points="380.707,206.447 378.219,206.275 378.377,203.793 380.865,203.958 	"/>
	<polygon points="378.49,203.922 380.73,204.072 380.586,206.315 378.352,206.157 	"/>
</g>
<g>
	<polygon points="202.864,378.188 200.372,378.186 200.356,375.699 202.85,375.69 	"/>
	<polygon points="200.484,375.818 202.724,375.814 202.741,378.064 200.5,378.066 	"/>
	<polygon points="374.797,200.148 372.303,200.151 372.287,197.664 374.781,197.654 	"/>
	<polygon points="372.408,197.785 374.654,197.778 374.666,200.025 372.428,200.023 	"/>
</g>
<g>
	<polygon points="209.367,383.877 206.88,384.049 206.691,381.568 209.179,381.387 	"/>
	<polygon points="206.827,381.68 209.062,381.52 209.235,383.762 207,383.92 	"/>
	<polygon points="368.463,194.277 365.975,194.454 365.783,191.975 368.271,191.791 	"/>
	<polygon points="365.914,192.086 368.154,191.922 368.322,194.164 366.09,194.318 	"/>
</g>
<g>
	<polygon points="216.25,389.099 213.782,389.443 213.42,386.982 215.89,386.627 	"/>
	<polygon points="213.564,387.084 215.783,386.768 216.111,388.992 213.892,389.307 	"/>
	<polygon points="361.732,188.863 359.264,189.212 358.9,186.752 361.369,186.395 	"/>
	<polygon points="359.039,186.854 361.262,186.535 361.586,188.759 359.369,189.069 	"/>
</g>
<g>
	<polygon points="223.482,393.827 221.043,394.344 220.511,391.914 222.95,391.387 	"/>
	<polygon points="220.662,392.005 222.852,391.535 223.334,393.73 221.143,394.199 	"/>
	<polygon points="354.643,183.931 352.203,184.452 351.668,182.023 354.107,181.495 	"/>
	<polygon points="351.814,182.115 354.01,181.641 354.488,183.838 352.299,184.301 	"/>
</g>
<g>
	<polygon points="231.026,398.039 228.629,398.726 227.928,396.339 230.324,395.643 	"/>
	<polygon points="228.085,396.419 230.238,395.797 230.872,397.953 228.718,398.574 	"/>
	<polygon points="347.225,179.506 344.826,180.195 344.125,177.81 346.521,177.112 	"/>
	<polygon points="344.275,177.891 346.434,177.266 347.064,179.424 344.912,180.038 	"/>
</g>
<g>
	<polygon points="238.845,401.715 236.502,402.567 235.636,400.235 237.977,399.373 	"/>
	<polygon points="235.798,400.305 237.902,399.533 238.685,401.641 236.581,402.41 	"/>
	<polygon points="339.516,175.608 337.172,176.464 336.305,174.133 338.648,173.27 	"/>
	<polygon points="336.463,174.204 338.57,173.429 339.35,175.538 337.248,176.3 	"/>
</g>
<g>
	<polygon points="246.902,404.836 244.625,405.85 243.597,403.584 245.872,402.561 	"/>
	<polygon points="243.763,403.643 245.808,402.727 246.737,404.773 244.691,405.688 	"/>
	<polygon points="331.555,172.258 329.275,173.275 328.248,171.01 330.527,169.986 	"/>
	<polygon points="328.41,171.07 330.459,170.15 331.385,172.2 329.34,173.107 	"/>
</g>
<g>
	<polygon points="255.157,407.389 252.956,408.559 251.772,406.37 253.97,405.189 	"/>
	<polygon points="251.942,406.417 253.917,405.36 254.988,407.338 253.01,408.393 	"/>
	<polygon points="323.379,169.472 321.178,170.645 319.994,168.458 322.195,167.277 	"/>
	<polygon points="320.16,168.506 322.139,167.445 323.205,169.425 321.23,170.473 	"/>
</g>
<g>
	<polygon points="263.569,409.358 261.456,410.68 260.122,408.579 262.232,407.248 	"/>
	<polygon points="260.294,408.613 262.192,407.422 263.397,409.319 261.498,410.51 	"/>
	<polygon points="315.029,167.262 312.914,168.585 311.58,166.487 313.695,165.155 	"/>
	<polygon points="311.75,166.523 313.65,165.327 314.852,167.228 312.955,168.411 	"/>
</g>
<g>
	<polygon points="272.098,410.736 270.083,412.202 268.605,410.199 270.617,408.725 	"/>
	<polygon points="268.78,410.222 270.589,408.9 271.924,410.709 270.112,412.029 	"/>
	<polygon points="306.545,165.641 304.527,167.108 303.051,165.107 305.068,163.632 	"/>
	<polygon points="303.223,165.132 305.035,163.806 306.367,165.619 304.557,166.931 	"/>
</g>
<g>
	<polygon points="280.703,411.517 278.794,413.119 277.181,411.225 279.084,409.613 	"/>
	<polygon points="277.357,411.234 279.07,409.789 280.528,411.502 278.811,412.945 	"/>
	<polygon points="297.969,164.615 296.059,166.22 294.447,164.327 296.355,162.714 	"/>
	<polygon points="294.619,164.339 296.336,162.89 297.789,164.605 296.074,166.041 	"/>
</g>
<rect x="324.738" y="285.102" transform="matrix(-0.7071 0.7071 -0.7071 -0.7071 762.7886 259.904)" width="5.657" height="5.657"/>
<rect x="249.238" y="285.102" transform="matrix(-0.7071 0.7071 -0.7071 -0.7071 633.902 313.2905)" width="5.657" height="5.657"/>
<rect x="284.738" y="336.102" transform="matrix(-0.7071 -0.7071 0.7071 -0.7071 251.2464 781.931)" width="5.657" height="5.657"/>
<rect x="284.738" y="234.102" transform="matrix(-0.7071 -0.7071 0.7071 -0.7071 323.3713 607.8061)" width="5.657" height="5.657"/>
<g>
	<path d="M212.536,291.044c2.769,7.793,8.992,14.203,16.793,14.263c4.976,0.041,9.632-2.609,9.662-6.471
		c0.008-1.273-0.432-2.878-2.004-4.21c-4.886-4.136-17.047-3.431-22.493-8.09c-1.854-1.522-3.421-3.56-3.391-7.234
		c0.04-5.417,5.213-9.005,11.431-8.957c2.996,0.022,6.38,1.134,9.357,3.654c0.898,0.808,1.404,1.283,1.855,1.288
		c1.13,0.009,2.862-4.595,2.922-4.83l1.3,0.01l-0.102,12.907l-1.3-0.01c-2.424-8.121-8.953-11.941-13.928-11.979
		c-5.312-0.042-9.068,2.85-9.091,5.816c-0.012,1.414,0.828,2.74,1.557,3.311c4.776,4.089,18.063,3.674,23.735,8.429
		c2.697,2.283,3.126,5.208,3.111,6.998c-0.054,6.784-5.622,10.463-12.859,10.406c-4.521-0.037-8.573-2.517-10.426-4.086
		c-1.404-1.19-2.131-2.137-2.752-2.143c-1.131-0.009-2.631,3.842-3.439,6.098l-1.245-0.01l0.119-15.17L212.536,291.044z"/>
	<path d="M332.911,270.344l21.265,0.166c7.739,0.062,15.656,3.295,15.604,10.079c-0.032,4.342-4.578,8.944-13.905,8.87l-8.404-0.065
		l-0.12,15.569l8.251,0.062l-0.012,1.318l-22.701-0.177l0.011-1.318l8.096,0.064l0.258-33.137l-8.351-0.065L332.911,270.344z
		 M347.66,271.533l-0.131,16.836l5.842,0.046c8.916,0.069,9.461-4.025,9.496-8.564c0.037-4.832-0.756-8.206-10.287-8.28
		L347.66,271.533z"/>
	<path d="M255.254,256.893l38.719,0.301c15.576,0.109,22.597,7.903,22.541,14.469c-0.051,5.808-6.172,12.5-22.422,14.826
		c13.885,1.613,19.72,6.369,20.738,7.301c2.036,1.867,4.523,5.504,4.488,9.461c-0.035,4.125-4.056,15.881-27.839,15.714
		l-36.666-0.286l0.021-2.357l10.829,0.105l0.493-57.073l-10.924-0.105L255.254,256.893z M277.575,287.384l-0.257,29.714
		l12.404,0.088c10.446,0.074,16.541-3.588,16.634-14.277c0.078-9.008-3.972-15.35-20.107-15.463L277.575,287.384z M277.823,258.68
		l-0.231,26.853l8.674,0.061c5.969,0.042,11.205-1.437,14.12-4.026c3.1-2.672,3.403-5.364,3.444-10.078
		c0.099-11.532-7.073-12.677-13.229-12.72L277.823,258.68z"/>
</g>
<g>
	<polygon points="205.374,348.596 207.167,346.863 208.908,348.643 207.119,350.381 	"/>
	<polygon points="208.731,348.641 207.121,350.203 205.551,348.598 207.165,347.039 	"/>
</g>
<g>
	<polygon points="363.281,348.596 365.074,346.863 366.814,348.643 365.025,350.381 	"/>
	<polygon points="366.639,348.641 365.027,350.203 363.459,348.598 365.072,347.039 	"/>
</g>
<g>
	<g>
		<path d="M201.48,332.928c3.327-3.129,5.187-7.697,3.487-11.654c-1.084-2.521-3.455-4.287-5.415-3.445
			c-0.646,0.277-1.359,0.855-1.684,1.945c-1.007,3.389,2.047,9.377,0.899,13.166c-0.358,1.273-1.041,2.518-2.905,3.32
			c-2.748,1.18-5.708-0.639-7.062-3.793c-0.653-1.52-0.842-3.475-0.229-5.539c0.209-0.633,0.338-0.994,0.239-1.223
			c-0.246-0.574-2.958-0.428-3.09-0.404l-0.283-0.66l6.548-2.814l0.283,0.66c-3.568,3.027-4.052,7.176-2.968,9.697
			c1.157,2.695,3.451,3.951,4.957,3.305c0.717-0.309,1.201-1.025,1.328-1.521c1.008-3.32-2.148-9.945-1.003-13.867
			c0.556-1.869,1.939-2.736,2.847-3.127c3.441-1.479,6.536,0.52,8.112,4.189c0.984,2.295,0.629,4.893,0.247,6.178
			c-0.29,0.975-0.607,1.553-0.473,1.867c0.246,0.574,2.526,0.477,3.846,0.385l0.271,0.631l-7.694,3.307L201.48,332.928z"/>
		<path d="M182.855,316.867l-3.274-18.992l6.635-1.143l0.093,0.539c-3.398,1.248-5.633,3.434-5.192,5.99l0.928,5.379l8.198-1.41
			l-0.376-2.18c-0.324-1.883-1.216-2.615-5.557-2.395l-0.093-0.539l10.862-1.869l0.098,0.564c-4.523,1.305-5.062,2.312-4.695,4.438
			l0.324,1.883l8.864-1.525l-0.886-5.139c-0.32-1.855-0.762-2.582-1.7-3.279c-0.912-0.703-3.445-1.623-6.452-1.467l-0.097-0.564
			l7.729-1.221l3.363,19.504l-0.718,0.123l-0.788-4.572l-17.37,2.99l0.821,4.762L182.855,316.867z"/>
		<path d="M179.609,279.577l0.054-0.708l17.307-5.028c1.546-0.429,1.76-0.851,1.852-2.048l0.124-1.633l0.7,0.053l-0.795,10.426
			l-0.7-0.054l0.21-2.75c0.05-0.653-0.104-1.021-0.545-1.055c-0.156-0.012-0.313,0.003-0.527,0.069l-4.294,1.259l-0.54,7.078
			c2.058,1.061,3.014,1.518,3.532,1.557c1.167,0.089,1.76-0.851,1.953-3.383l0.033-0.436l0.7,0.054l-0.679,8.901l-0.7-0.053
			l0.031-0.408c0.183-2.396-1.104-3.644-3.944-5.039L179.609,279.577z M183.63,280.871l8.168,4.021l0.503-6.588L183.63,280.871z"/>
		<path d="M181.513,264.94l5.527-17.889l7.378,2.28l-0.178,0.574c-3.918-0.268-6.299,0.482-6.792,0.758
			c-0.922,0.515-1.183,0.92-1.448,1.781l-0.653,2.112l16.992,5.25l1.555-5.033l0.671,0.208l-4.109,13.299l-0.671-0.208l1.547-5.007
			l-17.016-5.257l-0.604,1.956c-0.29,0.939-0.395,1.278-0.009,2.054c0.747,1.545,3.075,3.521,5.333,4.847l-0.169,0.548
			L181.513,264.94z"/>
		<path d="M189.591,241.267l9.493-16.141l6.658,3.916l-0.305,0.518c-3.752-1.162-6.242-0.98-6.786-0.825
			c-1.016,0.29-1.362,0.624-1.819,1.4l-1.121,1.906l15.332,9.018l2.671-4.541l0.605,0.356l-7.059,12l-0.604-0.356l2.656-4.518
			l-15.354-9.031l-1.038,1.765c-0.498,0.847-0.679,1.153-0.481,1.997c0.372,1.676,2.185,4.135,4.076,5.944l-0.29,0.494
			L189.591,241.267z"/>
		<path d="M202.623,220.377l9.008-9.438l0.526,0.502l-3.392,3.554l12.85,12.256l2.902-3.041c1.225-1.284,3.542-3.75-0.972-9.979
			l0.452-0.474l5.72,5.87l-13.285,13.92l-0.527-0.502l3.26-3.416l-12.756-12.166l-3.26,3.416L202.623,220.377z"/>
		<path d="M220.362,202.6l16.235-10.396l3.632,5.671l-0.46,0.294c-2.474-2.646-5.356-3.857-7.541-2.458l-4.599,2.945l4.487,7.007
			l1.862-1.193c1.609-1.03,1.939-2.137,0.048-6.051l0.46-0.294l5.946,9.284l-0.483,0.309c-2.961-3.662-4.099-3.767-5.915-2.604
			l-1.609,1.031l4.852,7.576l4.393-2.812c1.586-1.016,2.085-1.706,2.363-2.841c0.292-1.113,0.156-3.805-1.157-6.515l0.483-0.31
			l4.129,6.65l-16.672,10.675l-0.393-0.613l3.909-2.503l-9.508-14.846l-4.069,2.606L220.362,202.6z"/>
		<path d="M252.642,185.1l12.167-2.879c4.437-1.05,7.006,0.8,7.472,2.773c0.413,1.746-0.835,4.178-5.284,6.006
			c4.066-0.481,6.074,0.539,6.433,0.749c0.716,0.418,1.69,1.336,1.972,2.525c0.293,1.239,0.015,5.045-6.76,6.648l-11.582,2.741
			l-0.168-0.708l4.225-1l-4.056-17.153l-4.251,1.006L252.642,185.1z M260.327,183.789l1.908,8.07l2.471-0.584
			c1.7-0.402,3.08-1.21,3.718-2.189c0.686-1.017,0.574-1.845,0.239-3.262c-0.819-3.466-2.943-3.311-4.696-2.896L260.327,183.789z
			 M262.367,192.416l2.111,8.931l3.533-0.836c2.976-0.704,4.438-2.226,3.679-5.439c-0.64-2.707-2.257-4.328-6.853-3.24
			L262.367,192.416z"/>
		<path d="M299.947,189.998c-0.084,4.238-4.289,9.643-10.596,9.517c-5.531-0.11-10.372-4.785-10.264-10.193
			c0.069-3.484,3.605-9.838,10.75-9.696C295.338,179.736,300.055,184.642,299.947,189.998z M295.715,189.289
			c0.076-3.822,0.029-8.973-5.949-9.092c-6.248-0.124-6.349,4.972-6.459,10.51c-0.068,3.432,0.107,8.118,5.936,8.234
			C295.49,199.065,295.623,193.865,295.715,189.289z"/>
		<path d="M303.832,180.41l11.273,2.971l-0.186,0.704l-4.172-1.1l-3.053,11.593c-0.648,2.464-1.027,5.941,3.117,7.033
			c3.113,0.821,6.568-0.285,7.852-5.164l1.596-6.06c1.033-3.923,0.229-4.834-2.568-5.572l-1.293-0.341l0.184-0.704l9.953,2.623
			l-0.186,0.704l-1.162-0.306c-1.715-0.452-3.049,0.003-3.744,2.644l-1.9,7.217c-1.498,5.683-5.928,6.64-9.412,5.722
			c-3.352-0.884-7.027-3.762-5.861-8.188l3.18-12.07l-3.803-1.002L303.832,180.41z"/>
		<path d="M331.631,188.726l11.398,6.353l-0.354,0.636l-4.293-2.392l-8.65,15.507l3.672,2.047c1.551,0.864,4.521,2.489,9.424-3.44
			l0.572,0.319l-4.252,7.006l-16.814-9.37l0.355-0.636l4.125,2.299l8.586-15.394l-4.125-2.299L331.631,188.726z"/>
		<path d="M353.326,201.363l9.322,8.814c4.543,4.294,3.338,10.737,0.748,13.477c-1.855,1.964-4.754,2.766-6.789,2.773
			c-2.865,0.011-5.139-0.565-7.578-2.872l-8.787-8.308l0.482-0.51l3.312,3.132l12.121-12.827l-3.332-3.15L353.326,201.363z
			 M358.764,207.255l-12.301,13.016l2.816,2.663c2.658,2.513,5.74,3.782,11.258-2.055c4.498-4.76,4.732-7.472,1.262-10.754
			L358.764,207.255z"/>
		<path d="M372.789,220.601l10.418,16.213l-5.664,3.64l-0.295-0.459c2.643-2.477,3.848-5.361,2.445-7.542l-2.951-4.593l-6.996,4.497
			l1.195,1.86c1.031,1.607,2.139,1.935,6.049,0.038l0.295,0.459l-9.271,5.958l-0.311-0.482c3.656-2.966,3.76-4.103,2.594-5.917
			l-1.033-1.607l-7.564,4.863l2.818,4.386c1.018,1.584,1.707,2.082,2.844,2.358c1.113,0.291,3.803,0.151,6.51-1.167l0.311,0.482
			l-6.641,4.138l-10.697-16.649l0.611-0.394l2.508,3.904l14.826-9.528l-2.611-4.064L372.789,220.601z"/>
		<path d="M387.203,244.165l4.006,12.968c1.729,5.599,0.518,8.818-1.816,9.539c-0.572,0.176-3.889,0.886-6.84-6.025
			c-0.143,3.329-1.279,4.931-2.805,6.246c-2,1.806-4.314,2.331-3.898,3.674c0.404,1.314,2.135,1.719,4.32,1.045l0.871-0.268
			l0.201,0.657l-0.918,0.284c-2.285,0.705-4.693,0.571-5.682-2.628c-0.697-2.257,0.189-4.407,2.922-5.25l0.92-0.283
			c2.559-0.789,4.426-1.615,3.121-5.843l-0.732-2.371l-8.447,2.604l1.438,4.656l-0.695,0.215l-4.1-13.283l0.695-0.214l1.561,5.056
			l16.842-5.193l-1.658-5.37L387.203,244.165z M389.443,253.267l-8.023,2.474l0.855,2.771c1.076,3.485,2.797,5.363,6.076,4.352
			c3.701-1.141,2.828-3.969,1.982-6.711L389.443,253.267z"/>
		<path d="M394.887,273.664l0.914,11.978l-0.727,0.055l-0.328-4.301l-17.604,1.336l0.328,4.301l-0.699,0.053l-0.912-11.951
			l0.701-0.053l0.324,4.247l17.602-1.337l-0.326-4.273L394.887,273.664z"/>
		<path d="M392.414,314.021l0.141-1.057c0.309-2.328-0.627-3.58-3.926-4.016l-13.814-1.824l0.084-0.623l17.67-10.859l-10.463-1.381
			c-3.197-0.422-4.908,0.232-5.4,3.941l-0.133,1.002l-0.695-0.092l1.48-11.18l0.695,0.092l-0.143,1.083
			c-0.406,3.059,1.254,4.188,4.078,4.449l11.469,1.516c1.285-0.795,1.68-1.598,1.941-3.572l0.09-0.678l0.721,0.096l-0.918,6.93
			l-15.018,9.254l8.658,1.145c3.764,0.496,4.4-1.154,4.688-3.32l0.15-1.137l0.723,0.096l-1.381,10.229L392.414,314.021z"/>
		<path d="M366.584,328.352c1.66,0.271,3.805,0.596,3.992,0.143c0.135-0.328-0.441-0.566-1.053-2.088
			c-0.426-1.15-0.943-2.961,0.033-5.332c1.936-4.695,8.119-6.867,12.301-5.143c5.432,2.242,7.67,8.953,6.109,12.74
			c-1.301,3.154-3.549,3.762-4.434,4.135c-0.242,0.107-0.387,0.254-0.449,0.406c-0.207,0.504,0.992,1.619,1.92,2.506l-0.219,0.529
			l-8.113-3.172l0.188-0.453c3.828,0.605,8.799,0.146,10.547-4.094c0.582-1.414,0.674-2.588,0.166-3.949
			c-0.777-2.004-2.424-3.125-6.941-4.99c-3.004-1.24-8.412-3.471-10.514,1.627c-0.76,1.842-1.395,5.359,2.547,6.986l2.188,0.902
			l1.561-3.785l0.672,0.277l-3.881,9.414l-0.674-0.277l1.125-2.727l-7.33-3.025L366.584,328.352z"/>
	</g>
	<g>
		<path d="M224.453,352.469l8.542,6.756c3.108,2.459,5.291,6.256,3.137,8.982c-1.38,1.744-4.664,2.174-8.41-0.789l-3.376-2.67
			l-4.945,6.256l3.313,2.621l-0.418,0.529l-9.119-7.213l0.419-0.529l3.252,2.572l10.526-13.312l-3.355-2.654L224.453,352.469z
			 M230.04,357.588l-5.349,6.766l2.347,1.855c3.582,2.834,5.09,1.35,6.531-0.475c1.535-1.941,2.275-3.555-1.553-6.582
			L230.04,357.588z"/>
		<path d="M239.645,364.789l11.888,5.389c5.132,2.328,6.679,5.252,5.707,7.393c-0.237,0.523-1.842,3.363-8.698,1.078
			c2.306,2.227,2.732,4.066,2.706,6.004c0.024,2.592-1.073,4.592,0.158,5.15c1.204,0.545,2.599-0.441,3.508-2.445l0.361-0.797
			l0.603,0.273l-0.382,0.842c-0.95,2.096-2.582,3.744-5.515,2.414c-2.069-0.938-3.051-2.949-1.915-5.453l0.383-0.842
			c1.063-2.346,1.66-4.215-2.216-5.973l-2.173-0.984l-3.513,7.74l4.269,1.934l-0.289,0.639l-12.176-5.521l0.289-0.637l4.635,2.102
			l7.004-15.436l-4.923-2.232L239.645,364.789z M247.624,368.982l-3.336,7.354l2.54,1.152c3.194,1.447,5.644,1.406,7.008-1.6
			c1.539-3.393-1.053-4.566-3.566-5.707L247.624,368.982z"/>
		<path d="M279.007,387.395c-0.749,4.004-5.589,8.463-11.552,7.346c-5.229-0.98-9.083-6.178-8.127-11.287
			c0.615-3.293,4.971-8.758,11.726-7.492C276.253,376.936,279.954,382.334,279.007,387.395z M275.105,386.053
			c0.675-3.611,1.443-8.502-4.209-9.561c-5.906-1.107-6.807,3.707-7.784,8.941c-0.606,3.242-1.179,7.711,4.332,8.744
			C273.35,395.285,274.296,390.377,275.105,386.053z"/>
		<path d="M287.13,377.74l11.049-0.309l0.02,0.699l-3.832,0.107l0.307,10.922c0.084,3-0.873,4.428-1.818,5.404
			c-1.303,1.312-3.041,2.061-4.721,2.107c-3.018,0.084-5.265-2.279-5.325-4.404c-0.032-1.174,0.614-2.467,2.084-2.508
			c1.154-0.033,2.126,0.891,2.157,2.016c0.018,0.6-0.283,1.133-0.487,1.34c-0.716,0.719-1.801,0.4-1.773,1.398
			c0.018,0.602,1.097,1.646,3.223,1.586c2.021-0.055,3.537-1.248,3.443-4.598l-0.371-13.172l-3.936,0.109L287.13,377.74z"/>
		<path d="M299.561,377.494l17.98-4.514l1.576,6.279l-0.51,0.129c-1.445-3.168-3.703-5.154-6.123-4.547l-5.092,1.279l1.947,7.76
			l2.062-0.518c1.783-0.449,2.422-1.355,1.895-5.502l0.51-0.129l2.582,10.281l-0.535,0.135c-1.58-4.244-2.584-4.688-4.598-4.182
			l-1.781,0.447l2.105,8.389l4.865-1.221c1.756-0.441,2.422-0.918,3.023-1.867c0.605-0.926,1.307-3.422,0.938-6.293l0.535-0.135
			l1.73,7.324l-18.465,4.635l-0.17-0.678l4.33-1.088l-4.129-16.439l-4.508,1.133L299.561,377.494z"/>
		<path d="M340.23,375.072c1.49,3.949,0.27,7.986-3.633,9.922c-4.893,2.424-10.725-0.713-12.535-4.363
			c-2-4.031-0.547-10.557,3.592-12.607c3.127-1.551,5.303-0.174,6.1,0.072c0.174,0.055,0.324,0.062,0.441,0.004
			c0.564-0.279,0.002-3.125-0.039-3.328l0.518-0.256l3.967,7.408l-0.494,0.246c-2.086-2.26-4.324-3.521-5.768-3.951
			c-1.361-0.441-2.906-0.484-4.41,0.262c-1.506,0.746-2.191,1.785-2.502,2.635c-0.67,1.84-0.086,3.783,1.59,7.166
			c2.389,4.816,3.814,6.035,5.58,6.582c1.166,0.344,2.469,0.256,3.645-0.328c3.01-1.492,5.002-4.74,3.455-9.219L340.23,375.072z"/>
		<path d="M335.812,364.18l14.174-11.105l4.58,5.84l-0.453,0.357c-2.951-2.357-5.244-3.07-5.785-3.121
			c-1.01-0.098-1.438,0.078-2.119,0.613l-1.674,1.311l10.551,13.453l3.988-3.123l0.416,0.531l-10.537,8.256l-0.416-0.531
			l3.967-3.107l-10.566-13.475l-1.551,1.215c-0.744,0.584-1.012,0.793-1.133,1.619c-0.256,1.629,0.502,4.465,1.559,6.75l-0.434,0.34
			L335.812,364.18z"/>
	</g>
</g>
</svg>
